<?xml version="1.0" ?><svg xmlns="http://www.w3.org/2000/svg" width="24" height="24" viewBox="0 0 24 24" fill="none"><path fill-rule="evenodd" clip-rule="evenodd" d="M10.0302 9.73727C9.39893 10.2873 9 11.097 9 12C9 13.6569 10.3431 15 12 15C12.903 15 13.7127 14.6011 14.2627 13.9699L13.5531 13.2602C13.1864 13.7116 12.6269 14 12 14C10.8954 14 10 13.1046 10 12C10 11.3731 10.2884 10.8136 10.7398 10.4469L10.0302 9.73727Z" fill="white"/><path fill-rule="evenodd" clip-rule="evenodd" d="M7.25807 6.96518C5.22008 8.23056 3.59792 10.1049 2.58237 11.7248C2.61616 11.6735 2.66003 11.6276 2.71343 11.5903C2.93972 11.432 3.25146 11.4871 3.40973 11.7134C3.47423 11.8057 3.53871 11.8966 3.60314 11.9862C4.61478 10.4521 6.1419 8.78263 7.98636 7.69347L7.25807 6.96518ZM8.91589 7.20879C9.37327 7.00159 9.84644 6.83302 10.3328 6.71244C11.8242 6.34267 13.4525 6.41944 15.1657 7.23083C16.8279 8.01806 18.597 9.51008 20.3968 12.0138C20.4585 11.9202 20.5183 11.8272 20.5761 11.7348C20.7226 11.5007 21.0311 11.4297 21.2652 11.5761C21.3205 11.6107 21.3667 11.6544 21.4031 11.7039C19.4717 8.94498 17.5146 7.23681 15.5937 6.32707C13.6621 5.41225 11.7966 5.31923 10.0922 5.74182C9.42143 5.90812 8.77768 6.15354 8.16533 6.45823L8.91589 7.20879ZM2.59026 12.2866L2.59692 12.2961C2.57989 12.2729 2.56501 12.2484 2.55235 12.2229C2.56325 12.2447 2.57587 12.266 2.59026 12.2866ZM21.4476 11.7771C21.4801 11.8424 21.4979 11.9142 21.4999 11.987C21.4981 11.9155 21.481 11.8438 21.4476 11.7771ZM21.4589 12.1987C21.4877 12.132 21.5017 12.0596 21.4999 11.987C21.5018 12.0583 21.4885 12.1305 21.4589 12.1987ZM21.4589 12.1987C21.4475 12.2252 21.4337 12.2508 21.4176 12.2751L21.4238 12.2652C21.4374 12.2436 21.449 12.2214 21.4589 12.1987Z" fill="white"/><path d="M4 4L20 20" stroke="white" stroke-linecap="round" stroke-linejoin="round"/><path fill-rule="evenodd" clip-rule="evenodd" d="M16.3757 16.0828C15.5377 16.6237 14.6282 17.0493 13.6672 17.2876C12.1758 17.6573 10.5475 17.5806 8.83432 16.7692C7.11263 15.9538 5.27624 14.3822 3.40973 11.7134C3.25147 11.4872 2.93972 11.432 2.71343 11.5903C2.48714 11.7485 2.432 12.0603 2.59026 12.2866C4.52375 15.0511 6.4832 16.7621 8.40629 17.6729C10.3379 18.5878 12.2034 18.6808 13.9078 18.2582C15.0579 17.973 16.1286 17.4553 17.0978 16.805L16.3757 16.0828ZM17.9151 16.208C19.4093 15.0257 20.6117 13.5632 21.4238 12.2652C21.5703 12.0312 21.4993 11.7226 21.2652 11.5762C21.0311 11.4297 20.7226 11.5007 20.5761 11.7348C19.7826 13.0029 18.6194 14.3964 17.2027 15.4956L17.9151 16.208Z" fill="white"/></svg>